# llanta decágono exterior
v 10 0.0 0
v 8.1 5.9 0
v 3.1 9.5 0
v -3.1 9.5 0
v -8.1 5.9 0
v -10 0.0 0
v -8.1 -5.9 0
v -3.1 -9.5 0
v 3.1 -9.5 0
v 8.1 -5.9 0

# decágono interior
v 6.0 0.0 0
v 4.9 3.5 0
v 1.9 5.7 0
v -1.9 5.7 0
v -4.9 3.5 0
v -6.0 0.0 0
v -4.9 -3.5 0
v -1.9 -5.7 0
v 1.9 -5.7 0
v 4.9 -3.5 0

# decagono trasero
# llanta decágono exterior
v 10.0 0.0 -7
v 8.1 5.9 -7
v 3.1 9.5 -7
v -3.1 9.5 -7
v -8.1 5.9 -7
v -10.0 0.0 -7
v -8.1 -5.9 -7
v -3.1 -9.5 -7
v 3.1 -9.5 -7
v 8.1 -5.9 -7

#juntar decagono exterior con interior de enfrente
f 1 12 11
f 1 2 12
f 12 2 13
f 2 3 13
f 3 14 13
f 3 4 14
f 4 15 14
f 4 5 15
f 5 16 15
f 5 6 16
f 6 17 16
f 6 7 17
f 7 18 17
f 7 8 18
f 8 19 18
f 8 9 19
f 9 20 19
f 9 10 20
f 10 11 20
f 10 1 11

# cara trasera
f 27 26 25
f 27 25 24
f 27 24 28
f 28 24 23
f 28 23 29
f 29 23 22
f 29 22 30
f 30 22 21

#juntar cara frontal con trasera
f 1 22 2
f 1 21 22
f 2 23 3
f 2 22 23
f 3 24 4
f 3 23 24
f 4 25 5
f 4 24 25
f 5 26 6
f 5 25 26
f 6 27 7
f 6 26 27
f 7 28 8
f 7 27 28
f 8 29 9
f 8 28 29
f 9 30 10
f 9 29 30
f 10 21 1
f 10 30 21

