#tolva cara frontal
v -2 -6 0
v 2 -6 0
v 7 -4 0
v 9 -1 0
v 9 7 0
v -9 7 0
v -9 -1 0
v -7 -4 0

# tolva cara trasera
v -2 -6 -20
v 2 -6 -20
v 7 -4 -20
v 9 -1 -20
v 9 7 -20
v -9 7 -20
v -9 -1 -20
v -7 -4 -20

# tronco 1 para eje 
#frontal
v -2 -10 0
v 2 -10 0

#trasero
v -2 -10 -20
v 2 -10 -20

# eje horizontal frontal
v -2 -8 0
v 2 -8 0
v -7 -8 0
v -7 -10 0
v 7 -10 0
v 7 -8 0

v -2 -8 -2
v 2 -8 -2
v -7 -8 -2
v -7 -10 -2
v 7 -10 -2
v 7 -8 -2

v -2 -10 -2
v 2 -10 -2


#eje horizontal trasero
v -2 -8 -18
v 2 -8 -18
v -7 -8 -18
v -7 -10 -18
v 7 -10 -18
v 7 -8 -18

v -2 -8 -20
v 2 -8 -20
v -7 -8 -20
v -7 -10 -20
v 7 -10 -20
v 7 -8 -20

v -2 -10 -18
v 2 -10 -18






# capa interior de la tolva
v -2 -6 0
v 2 -6 0
v 7 -4 0
v 9 -1 0
v 9 7 0
v -9 7 0
v -9 -1 0
v -7 -4 0
v -2 -6 -20
v 2 -6 -20
v 7 -4 -20
v 9 -1 -20
v 9 7 -20
v -9 7 -20
v -9 -1 -20
v -7 -4 -20



# cara frontal
f 1 2 8
f 2 4 8
f 2 3 4
f 8 4 5
f 8 5 6
f 8 6 7

# cara trasera
f 9 16 10
f 10 12 11
f 10 16 12
f 16 13 12
f 16 14 13
f 16 15 14

# conectar frontal y trasera
f 9 10 2
f 9 2 1
f 10 11 3
f 10 3 2
f 11 12 4
f 11 4 3
f 12 13 5
f 12 5 4
f 14 15 7
f 14 7 6
f 15 16 8
f 15 8 7
f 16 9 1
f 16 1 8

#armar rectangulo inferior
f 17 18 2
f 17 2 1
f 20 9 10
f 20 19 9
f 18 10 2
f 18 20 10
f 19 17 1
f 19 1 9
f 19 20 18
f 19 18 17

#armar eje horizontal frontal
f 24 17 21
f 24 21 23
f 18 25 26
f 18 26 22

f 30 29 27
f 30 27 33
f 34 28 32
f 34 32 31

f 23 21 27
f 23 27 29
f 30 33 17
f 30 17 24

f 22 26 32
f 22 32 28
f 34 31 25
f 34 25 18


# eje horizontal trasero
f 38 47 35
f 38 35 37
f 44 41 19
f 44 43 41

f 48 39 40
f 48 40 36
f 20 46 45
f 20 42 46

f 37 35 41
f 37 41 43
f 44 19 47
f 44 47 38

f 36 40 46
f 36 46 42
f 20 45 48
f 45 48 39




#cara interior tolva
f 60 52 53
f 61 60 53
f 59 51 52
f 60 59 52
f 58 50 51
f 59 58 51
f 57 49 50
f 58 57 50
f 64 56 49
f 57 64 49
f 63 55 56
f 64 63 56
f 62 54 55
f 63 62 55

f 51 50 49
f 52 51 49
f 53 52 49
f 54 53 49
f 55 54 49
f 56 55 49

f 58 64 57
f 59 60 58
f 60 64 58
f 60 61 64
f 61 62 64
f 62 63 64

