v -3.5 0 -4.8
v -3.5 0 -4.8
v -3.5 0 -4.8
v 3.5 0 -4.8
v 3.5 0 -4.8
v 3.5 0 -4.8
v 5.7 0 1.8
v 5.7 0 1.8
v 5.7 0 1.8
v 0 0 6
v 0 0 6
v 0 0 6
v -5.7 0 1.8
v -5.7 0 1.8
v -5.7 0 1.8
v -2.2 2.6 -3.5
v -2.2 2.6 -3.5
v 3.6 2.4 -3.5
v 3.6 2.4 -3.5
v 5.3 2.6 2
v 5.3 2.6 2
v 0.7 2.4 5.4
v 0.7 2.4 5.4
v -4 2.6 2
v -4 2.6 2
v -0.3 5 -1.3
v -0.3 5 -1.3
v -0.3 5 -1.3
v 2.7 5 -1.3
v 2.7 5 -1.3
v 2.7 5 -1.3
v 3.6 5 1.6
v 3.6 5 1.6
v 3.6 5 1.6
v 1.2 5 3.4
v 1.2 5 3.4
v 1.2 5 3.4
v -1.2 5 1.6
v -1.2 5 1.6
v -1.2 5 1.6
v 0 -0.2 0
v 1.2 5.4 0.8
vt 0.19 0
vt 0 0
vt 1 0
vt 0.2 0
vt 0.2 0
vt 0.81 0
vt 0.4 0
vt 1 0.58
vt 0.4 0
vt 0.6 0
vt 0.6 0
vt 0.5 0.95
vt 0 0.58
vt 0.8 0
vt 0.8 0
vt 0 0.5
vt 1 0.5
vt 0.2 0.5
vt 0.2 0.5
vt 0.4 0.5
vt 0.4 0.5
vt 0.6 0.5
vt 0.6 0.5
vt 0.8 0.5
vt 0.8 0.5
vt 1 1
vt 0.19 0
vt 0 1
vt 0.2 1
vt 0.81 0
vt 0.2 1
vt 1 0.6
vt 0.4 1
vt 0.4 1
vt 0.5 0.98
vt 0.6 1
vt 0.6 1
vt 0.8 1
vt 0 0.6
vt 0.8 1
vt 0.5 0.45
vt 0.5 0.47
f 41/41 1/1 6/6
f 41/41 6/6 8/8
f 41/41 8/8 12/12
f 41/41 12/12 13/13
f 41/41 13/13 1/1
f 30/30 27/27 42/42
f 32/32 30/30 42/42
f 35/35 32/32 42/42
f 39/39 35/35 42/42
f 27/27 39/39 42/42
f 18/18 4/4 2/2
f 16/16 18/18 2/2
f 21/21 7/7 5/5
f 19/19 21/21 5/5
f 23/23 10/10 9/9
f 20/20 23/23 9/9
f 24/24 14/14 11/11
f 22/22 24/24 11/11
f 17/17 3/3 15/15
f 25/25 17/17 15/15
f 31/31 18/18 16/16
f 28/28 31/31 16/16
f 33/33 21/21 19/19
f 29/29 33/33 19/19
f 36/36 23/23 20/20
f 34/34 36/36 20/20
f 38/38 24/24 22/22
f 37/37 38/38 22/22
f 26/26 17/17 25/25
f 40/40 26/26 25/25