v 0.0 0.0 0.0
v 7.0 0.0 0.0
v 9.0 0.0 -2.0
v 8.0 0.0 -7.0       
v 4.0 0.0 -8.0
v -1.0 0.0 -7.0
v -2.0 0.0 -3.0
v 1.0 2.0 -2.0
v 4.0 2.0 -1.0
v 7.0 2.0 -2.0
v 8.0 2.0 -3.0
v 6.0 2.0 -6.0
v 4.0 2.0 -7.0
v 0.0 2.0 -6.0
v 0.0 2.0 -3.0
v 1.0 5.0 -2.0
v 4.0 5.0 -1.0
v 7.0 5.0 -2.0
v 8.0 5.0 -3.0
v 6.0 5.0 -6.0
v 4.0 5.0 -7.0
v 0.0 5.0 -6.0
v 0.0 5.0 -3.0
v 1.5 5.0 -2.5
v 4.0 5.0 -1.5
v 6.5 5.0 -2.5
v 7.5 5.0 -3.0
v 5.5 5.0 -5.5
v 4.0 5.0 -6.5
v 0.5 5.0 -5.5
v 0.5 5.0 -3.0
v 1.5 4.5 -2.5
v 4.0 4.5 -1.5
v 6.5 4.5 -2.5
v 7.5 4.5 -3.0
v 5.5 4.5 -5.5
v 4.0 4.5 -6.5
v 0.5 4.5 -5.5
v 0.5 4.5 -3.0

vt 0.00000 0.00000
vt 1.00000 -0.25000
vt 0.25000 -0.50000
vt 0.00000 0.00000
vt 1.75000 0.00000
vt 1.00000 0.50000
vt 1.00000 -0.25000
vt 1.75000 0.00000
vt 1.75000 -0.50000
vt 1.75000 0.00000
vt 2.25000 -0.50000
vt 1.75000 -0.50000
vt 2.25000 -0.50000
vt 2.00000 -0.75000
vt 1.75000 -0.50000
vt -1.75000 0.00000
vt -0.75000 0.50000
vt -0.50000 0.00000
vt 2.00000 -1.75000
vt 1.50000 -1.50000
vt 2.00000 -0.75000
vt 1.00000 0.00000
vt 1.50000 0.50000
vt 2.00000 0.00000
vt 1.00000 0.00000
vt 1.00000 0.50000
vt 1.50000 0.50000
vt 1.00000 0.00000
vt 0.00000 0.50000
vt 1.00000 0.50000
vt 1.00000 0.00000
vt -0.25000 0.00000
vt 0.00000 0.50000
vt -1.75000 0.00000
vt -0.75000 0.00000
vt -1.50000 0.50000
vt -0.50000 -0.75000
vt 0.00000 -0.75000
vt 0.00000 -1.50000
vt -0.50000 -0.75000
vt 0.00000 0.00000
vt 0.00000 -0.75000
vt 0.00000 0.00000
vt 0.25000 -0.50000
vt 0.00000 -0.75000
vt 0.25000 0.50000
vt 1.00000 0.50000
vt 1.00000 1.25000
vt 0.25000 0.50000
vt 1.00000 1.25000
vt 0.25000 1.25000
vt 1.00000 0.50000
vt 1.75000 0.50000
vt 1.75000 1.25000
vt 1.00000 0.50000
vt 1.75000 1.25000
vt 1.00000 1.25000
vt -0.50000 0.50000
vt -0.75000 0.50000
vt -0.75000 1.25000
vt -0.50000 0.50000
vt -0.75000 1.25000
vt -0.50000 1.25000
vt -0.75000 0.50000
vt -1.50000 0.50000
vt -1.50000 1.25000
vt -0.75000 0.50000
vt -1.50000 1.25000
vt -0.75000 1.25000
vt 1.50000 0.50000
vt 1.00000 0.50000
vt 1.00000 1.25000
vt 1.50000 0.50000
vt 1.00000 1.25000
vt 1.50000 1.25000
vt 1.00000 0.50000
vt 0.00000 0.50000
vt 0.00000 1.25000
vt 1.00000 0.50000
vt 0.00000 1.25000
vt 1.00000 1.25000
vt -1.50000 0.50000
vt -0.75000 0.50000
vt -0.75000 1.25000
vt -1.50000 0.50000
vt -0.75000 1.25000
vt -1.50000 1.25000
vt -0.75000 0.50000
vt -0.50000 0.50000
vt -0.50000 1.25000
vt -0.75000 0.50000
vt -0.50000 1.25000
vt -0.75000 1.25000
vt 0.25000 -0.50000
vt 1.00000 -0.37500
vt 0.37500 -0.62500
vt 0.25000 -0.50000
vt 1.00000 -0.25000
vt 1.00000 -0.37500
vt 1.00000 -0.25000
vt 1.62500 -0.62500
vt 1.00000 -0.37500
vt 1.00000 -0.25000
vt 1.75000 -0.50000
vt 1.62500 -0.62500
vt 1.75000 -0.50000
vt 2.00000 -0.75000
vt 1.87500 -0.75000
vt 1.75000 -0.50000
vt 1.87500 -0.75000
vt 1.62500 -0.62500
vt 2.00000 -0.75000
vt 1.50000 -1.50000
vt 1.37500 -1.37500
vt 2.00000 -0.75000
vt 1.37500 -1.37500
vt 1.87500 -0.75000
vt 1.50000 -1.50000
vt 1.00000 -1.75000
vt 1.00000 -1.62500
vt 1.50000 -1.50000
vt 1.00000 -1.62500
vt 1.37500 -1.37500
vt 1.00000 -1.75000
vt 0.00000 -1.50000
vt 0.12500 -1.37500
vt 1.00000 -1.75000
vt 0.12500 -1.37500
vt 1.00000 -1.62500
vt 0.00000 -1.50000
vt 0.00000 -0.75000
vt 0.12500 -0.75000
vt 0.00000 -1.50000
vt 0.12500 -0.75000
vt 0.12500 -1.37500
vt 0.00000 -0.75000
vt 0.25000 -0.50000
vt 0.37500 -0.62500
vt 0.00000 -0.75000
vt 0.37500 -0.62500
vt 0.12500 -0.75000
vt 0.37500 -0.62500
vt 1.00000 -0.37500
vt 1.62500 -0.62500
vt 0.37500 -0.62500
vt 1.62500 -0.62500
vt 1.37500 -1.37500
vt 1.62500 -0.62500
vt 1.87500 -0.75000
vt 1.37500 -1.37500
vt 0.37500 -0.62500
vt 1.37500 -1.37500
vt 1.00000 -1.62500
vt 0.37500 -0.62500
vt 1.00000 -1.62500
vt 0.12500 -0.75000
vt 0.12500 -0.75000
vt 1.00000 -1.62500
vt 0.12500 -1.37500
vt 0.37500 1.25000
vt 1.00000 1.25000
vt 1.00000 1.12500
vt 0.37500 1.25000
vt 1.00000 1.12500
vt 0.37500 1.12500
vt 1.00000 1.25000
vt 1.62500 1.25000
vt 1.62500 1.12500
vt 1.00000 1.25000
vt 1.62500 1.12500
vt 1.00000 1.12500
vt 1.62500 1.25000
vt 1.87500 1.25000
vt 1.87500 1.12500
vt 1.62500 1.25000
vt 1.87500 1.12500
vt 1.62500 1.12500
vt -0.75000 1.25000
vt -1.37500 1.25000
vt -1.37500 1.12500
vt -0.75000 1.25000
vt -1.37500 1.12500
vt -0.75000 1.12500
vt 1.37500 1.25000
vt 1.00000 1.25000
vt 1.00000 1.12500
vt 1.37500 1.25000
vt 1.00000 1.12500
vt 1.37500 1.12500
vt 1.00000 1.25000
vt 0.12500 1.25000
vt 0.12500 1.12500
vt 1.00000 1.25000
vt 0.12500 1.12500
vt 1.00000 1.12500
vt -1.37500 1.25000
vt -0.75000 1.25000
vt -0.75000 1.12500
vt -1.37500 1.25000
vt -0.75000 1.12500
vt -1.37500 1.12500
vt 0.12500 1.25000
vt 0.37500 1.25000
vt 0.37500 1.12500
vt 0.12500 1.25000
vt 0.37500 1.12500
vt 0.12500 1.12500

usemtl wood
f 1/1 9/2 8/3
f 1/4 2/5 9/6
f 9/7 2/8 10/9
f 2/10 3/11 10/12
f 3/13 11/14 10/15
f 4/16 11/17 3/18
f 4/19 12/20 11/21
f 5/22 12/23 4/24
f 5/25 13/26 12/27
f 5/28 14/29 13/30
f 5/31 6/32 14/33
f 6/34 7/35 14/36
f 7/37 15/38 14/39
f 7/40 1/41 15/42
f 1/43 8/44 15/45
f 8/46 9/47 17/48
f 8/49 17/50 16/51
f 9/52 10/53 18/54
f 9/55 18/56 17/57
f 10/58 11/59 19/60
f 10/61 19/62 18/63
f 11/64 12/65 20/66
f 11/67 20/68 19/69
f 12/70 13/71 21/72
f 12/73 21/74 20/75
f 13/76 14/77 22/78
f 13/79 22/80 21/81
f 14/82 15/83 23/84
f 14/85 23/86 22/87
f 15/88 8/89 16/90
f 15/91 16/92 23/93
f 16/94 25/95 24/96
f 16/97 17/98 25/99
f 17/100 26/101 25/102
f 17/103 18/104 26/105
f 18/106 19/107 27/108
f 18/109 27/110 26/111
f 19/112 20/113 28/114
f 19/115 28/116 27/117
f 20/118 21/119 29/120
f 20/121 29/122 28/123
f 21/124 22/125 30/126
f 21/127 30/128 29/129
f 22/130 23/131 31/132
f 22/133 31/134 30/135
f 23/136 16/137 24/138
f 23/139 24/140 31/141
f 32/142 33/143 34/144
f 32/145 34/146 36/147
f 34/148 35/149 36/150
f 32/151 36/152 37/153
f 32/154 37/155 39/156
f 39/157 37/158 38/159
f 24/160 25/161 33/162
f 24/163 33/164 32/165
f 25/166 26/167 34/168
f 25/169 34/170 33/171
f 26/172 27/173 35/174
f 26/175 35/176 34/177
f 27/178 28/179 36/180
f 27/181 36/182 35/183
f 28/184 29/185 37/186
f 28/187 37/188 36/189
f 29/190 30/191 38/192
f 29/193 38/194 37/195
f 30/196 31/197 39/198
f 30/199 39/200 38/201
f 31/202 24/203 32/204
f 31/205 32/206 39/207
