v -0.5 0 -2
v 1 0 -2
v 1 0 2
v -0.5 0 2
v 6.2 6 -2
v 8.2 6 -2
v 8.2 6 2
v 6.2 6 2
v 0.5 -3 -9
v 0.5 -3 9
v -0.5 -3 9
v -0.5 -3 -9
v 1 0 -9
v 1 0 9
v -0.5 0 9
v -0.5 0 -9
v -6 -3 9
v -6 -3 -9
v -6 -2 9
v -6 -2 -9
v -0.5 -3 8.5
v -0.5 -3 -8.5
v -0.5 0 8.5
v -0.5 0 -8.5
v -6 -3 8.5
v -6 -3 -8.5
v -6 -2 8.5
v -6 -2 -8.5
v -0.5 -3 -7.25
v -0.5 -3 -4.75
v -0.5 -0.5 -4.75
v -0.5 -0.5 -7.25
v -6.5 -2.75 -6
v -0.5 -3 -4.25
v -0.5 -3 -1.75
v -0.5 -0.5 -1.75
v -0.5 -0.5 -4.25
v -6.5 -2.75 -3
v -0.5 -3 -1.25
v -0.5 -3 1.25
v -0.5 -0.5 1.25
v -0.5 -0.5 -1.25
v -6.5 -2.75 0
v -0.5 -3 1.75
v -0.5 -3 4.25
v -0.5 -0.5 4.25
v -0.5 -0.5 1.75
v -6.5 -2.75 3
v -0.5 -3 4.75
v -0.5 -3 7.25
v -0.5 -0.5 7.25
v -0.5 -0.5 4.75
v -6.5 -2.75 6

f 15 17 11
f 17 15 19
f 16 12 18
f 18 20 16
f 25 23 21
f 23 25 27
f 26 22 24
f 24 28 26
f 21 11 25
f 11 17 25
f 27 17 19
f 25 17 27
f 23 19 15
f 27 19 23
f 22 12 16
f 24 22 16
f 26 18 12
f 22 26 12
f 28 20 18
f 26 28 18
f 24 16 20
f 28 24 20
f 1 2 3
f 1 3 4
f 5 8 7
f 5 7 6
f 1 5 6
f 1 6 2
f 2 6 7
f 2 7 3
f 3 7 8
f 3 8 4
f 4 8 5
f 4 5 1
f 9 10 11
f 9 11 12
f 13 16 15
f 13 15 14
f 9 13 14
f 9 14 10
f 10 14 15
f 10 15 11
f 11 15 16
f 11 16 12
f 12 16 13
f 12 13 9
f 31 30 29
f 32 31 29
f 29 30 33
f 30 31 33
f 31 32 33
f 32 29 33
f 36 35 34
f 37 36 34
f 34 35 38
f 35 36 38
f 36 37 38
f 37 34 38
f 41 40 39
f 42 41 39
f 39 40 43
f 40 41 43
f 41 42 43
f 42 39 43
f 46 45 44
f 47 46 44
f 44 45 48
f 45 46 48
f 46 47 48
f 47 44 48
f 51 50 49
f 52 51 49
f 49 50 53
f 50 51 53
f 51 52 53
f 52 49 53