v 7.5 9.5 0
v 7.5 5 0
v 9.5 1 0
v 5 0 0
v 0 -3.5 0
v -3 -3 0
v -8 -3 0
v -16 -2 0
v -16 5 0
v -13 9.5 0
v 7.5 9.5 8
v 7.5 5 8
v 9.5 1 8
v 5 0 8
v 0 -3.5 8
v -3 -3 8
v -8 -3 8
v -16 -2 8
v -16 5 8
v -13 9.5 8

f 1 2 4
f 2 3 4
f 1 4 5
f 1 5 6
f 1 6 10
f 9 10 6
f 6 7 9
f 7 8 9
f 14 12 11
f 14 13 12
f 15 14 11
f 16 15 11
f 20 16 11
f 16 20 19
f 19 17 16
f 19 18 17
f 12 2 1
f 11 12 1
f 13 3 2
f 12 13 2
f 14 4 3
f 13 14 3
f 15 5 4
f 14 15 4
f 16 6 5
f 15 16 5
f 17 7 6
f 16 17 6
f 18 8 7
f 17 18 7
f 19 9 8
f 18 19 8
f 20 10 9
f 19 20 9
f 11 1 10
f 20 11 10

